<svg xmlns="http://www.w3.org/2000/svg" xmlns:xlink="http://www.w3.org/1999/xlink" id="processonSvg1000" viewBox="87.0 127.25 515.0 1231.75" width="515.0" height="1231.75"><defs id="ProcessOnDefs1001"><marker id="ProcessOnMarker1016" markerUnits="userSpaceOnUse" orient="auto" markerWidth="16.23606797749979" markerHeight="10.550836550532098" viewBox="-1.0 -1.3763819204711736 16.23606797749979 10.550836550532098" refX="-1.0" refY="3.8990363547948754"><path id="ProcessOnPath1017" d="M12.0 3.8990363547948754L0.0 7.798072709589751V0.0Z" stroke="#323232" stroke-width="2.0" fill="#323232" transform="matrix(1.0,0.0,0.0,1.0,0.0,0.0)"/></marker><marker id="ProcessOnMarker1024" markerUnits="userSpaceOnUse" orient="auto" markerWidth="16.23606797749979" markerHeight="10.550836550532098" viewBox="-1.0 -1.3763819204711736 16.23606797749979 10.550836550532098" refX="-1.0" refY="3.8990363547948754"><path id="ProcessOnPath1025" d="M12.0 3.8990363547948754L0.0 7.798072709589751V0.0Z" stroke="#323232" stroke-width="2.0" fill="#323232" transform="matrix(1.0,0.0,0.0,1.0,0.0,0.0)"/></marker><marker id="ProcessOnMarker1035" markerUnits="userSpaceOnUse" orient="auto" markerWidth="16.23606797749979" markerHeight="10.550836550532098" viewBox="-1.0 -1.3763819204711736 16.23606797749979 10.550836550532098" refX="-1.0" refY="3.8990363547948754"><path id="ProcessOnPath1036" d="M12.0 3.8990363547948754L0.0 7.798072709589751V0.0Z" stroke="#323232" stroke-width="2.0" fill="#323232" transform="matrix(1.0,0.0,0.0,1.0,0.0,0.0)"/></marker><marker id="ProcessOnMarker1043" markerUnits="userSpaceOnUse" orient="auto" markerWidth="16.23606797749979" markerHeight="10.550836550532098" viewBox="-1.0 -1.3763819204711736 16.23606797749979 10.550836550532098" refX="-1.0" refY="3.8990363547948754"><path id="ProcessOnPath1044" d="M12.0 3.8990363547948754L0.0 7.798072709589751V0.0Z" stroke="#323232" stroke-width="2.0" fill="#323232" transform="matrix(1.0,0.0,0.0,1.0,0.0,0.0)"/></marker><marker id="ProcessOnMarker1051" markerUnits="userSpaceOnUse" orient="auto" markerWidth="16.23606797749979" markerHeight="10.550836550532098" viewBox="-1.0 -1.3763819204711736 16.23606797749979 10.550836550532098" refX="-1.0" refY="3.8990363547948754"><path id="ProcessOnPath1052" d="M12.0 3.8990363547948754L0.0 7.798072709589751V0.0Z" stroke="#323232" stroke-width="2.0" fill="#323232" transform="matrix(1.0,0.0,0.0,1.0,0.0,0.0)"/></marker><marker id="ProcessOnMarker1055" markerUnits="userSpaceOnUse" orient="auto" markerWidth="16.23606797749979" markerHeight="10.550836550532098" viewBox="-1.0 -1.3763819204711736 16.23606797749979 10.550836550532098" refX="-1.0" refY="3.8990363547948754"><path id="ProcessOnPath1056" d="M12.0 3.8990363547948754L0.0 7.798072709589751V0.0Z" stroke="#323232" stroke-width="2.0" fill="#323232" transform="matrix(1.0,0.0,0.0,1.0,0.0,0.0)"/></marker><marker id="ProcessOnMarker1070" markerUnits="userSpaceOnUse" orient="auto" markerWidth="16.23606797749979" markerHeight="10.550836550532098" viewBox="-1.0 -1.3763819204711736 16.23606797749979 10.550836550532098" refX="-1.0" refY="3.8990363547948754"><path id="ProcessOnPath1071" d="M12.0 3.8990363547948754L0.0 7.798072709589751V0.0Z" stroke="#323232" stroke-width="2.0" fill="#323232" transform="matrix(1.0,0.0,0.0,1.0,0.0,0.0)"/></marker><marker id="ProcessOnMarker1081" markerUnits="userSpaceOnUse" orient="auto" markerWidth="16.23606797749979" markerHeight="10.550836550532098" viewBox="-1.0 -1.3763819204711736 16.23606797749979 10.550836550532098" refX="-1.0" refY="3.8990363547948754"><path id="ProcessOnPath1082" d="M12.0 3.8990363547948754L0.0 7.798072709589751V0.0Z" stroke="#323232" stroke-width="2.0" fill="#323232" transform="matrix(1.0,0.0,0.0,1.0,0.0,0.0)"/></marker><marker id="ProcessOnMarker1092" markerUnits="userSpaceOnUse" orient="auto" markerWidth="16.23606797749979" markerHeight="10.550836550532098" viewBox="-1.0 -1.3763819204711736 16.23606797749979 10.550836550532098" refX="-1.0" refY="3.8990363547948754"><path id="ProcessOnPath1093" d="M12.0 3.8990363547948754L0.0 7.798072709589751V0.0Z" stroke="#323232" stroke-width="2.0" fill="#323232" transform="matrix(1.0,0.0,0.0,1.0,0.0,0.0)"/></marker><marker id="ProcessOnMarker1096" markerUnits="userSpaceOnUse" orient="auto" markerWidth="16.23606797749979" markerHeight="10.550836550532098" viewBox="-1.0 -1.3763819204711736 16.23606797749979 10.550836550532098" refX="-1.0" refY="3.8990363547948754"><path id="ProcessOnPath1097" d="M12.0 3.8990363547948754L0.0 7.798072709589751V0.0Z" stroke="#323232" stroke-width="2.0" fill="#323232" transform="matrix(1.0,0.0,0.0,1.0,0.0,0.0)"/></marker><marker id="ProcessOnMarker1103" markerUnits="userSpaceOnUse" orient="auto" markerWidth="16.23606797749979" markerHeight="10.550836550532098" viewBox="-1.0 -1.3763819204711736 16.23606797749979 10.550836550532098" refX="-1.0" refY="3.8990363547948754"><path id="ProcessOnPath1104" d="M12.0 3.8990363547948754L0.0 7.798072709589751V0.0Z" stroke="#323232" stroke-width="2.0" fill="#323232" transform="matrix(1.0,0.0,0.0,1.0,0.0,0.0)"/></marker><marker id="ProcessOnMarker1110" markerUnits="userSpaceOnUse" orient="auto" markerWidth="16.23606797749979" markerHeight="10.550836550532098" viewBox="-1.0 -1.3763819204711736 16.23606797749979 10.550836550532098" refX="-1.0" refY="3.8990363547948754"><path id="ProcessOnPath1111" d="M12.0 3.8990363547948754L0.0 7.798072709589751V0.0Z" stroke="#323232" stroke-width="2.0" fill="#323232" transform="matrix(1.0,0.0,0.0,1.0,0.0,0.0)"/></marker><marker id="ProcessOnMarker1118" markerUnits="userSpaceOnUse" orient="auto" markerWidth="16.23606797749979" markerHeight="10.550836550532098" viewBox="-1.0 -1.3763819204711736 16.23606797749979 10.550836550532098" refX="-1.0" refY="3.8990363547948754"><path id="ProcessOnPath1119" d="M12.0 3.8990363547948754L0.0 7.798072709589751V0.0Z" stroke="#323232" stroke-width="2.0" fill="#323232" transform="matrix(1.0,0.0,0.0,1.0,0.0,0.0)"/></marker></defs><g id="ProcessOnG1002"><path id="ProcessOnPath1003" d="M87.0 127.25H602.0V1359.0H87.0V127.25Z" fill="#ffffff"/><g id="ProcessOnG1004"><g id="ProcessOnG1005" transform="matrix(1.0,0.0,0.0,1.0,426.0,148.0)" opacity="1.0"><path id="ProcessOnPath1006" d="M10.333333333333334 0.0L89.66666666666667 0.0C103.44444444444444 0.0 103.44444444444444 31.0 89.66666666666667 31.0L10.333333333333334 31.0C-3.4444444444444446 31.0 -3.4444444444444446 0.0 10.333333333333334 0.0Z" stroke="#323232" stroke-width="2.0" stroke-dasharray="none" fill="#ccffe6"/><g id="ProcessOnG1007" transform="matrix(1.0,0.0,0.0,1.0,10.0,-0.75)"><text id="ProcessOnText1008" fill="#323232" font-size="13" x="39.0" y="13.325" font-family="Arial" font-weight="normal" font-style="normal" text-decoration="none" family="Arial" text-anchor="middle" size="13">进入积分商城首</text><text id="ProcessOnText1009" fill="#323232" font-size="13" x="39.0" y="29.575" font-family="Arial" font-weight="normal" font-style="normal" text-decoration="none" family="Arial" text-anchor="middle" size="13">页</text></g></g><g id="ProcessOnG1010" transform="matrix(1.0,0.0,0.0,1.0,424.5,231.0)" opacity="1.0"><path id="ProcessOnPath1011" d="M0.0 42.0L51.5 0.0L103.0 42.0L51.5 84.0L0.0 42.0Z" stroke="#323232" stroke-width="2.0" stroke-dasharray="none" fill="#ffcce6"/><g id="ProcessOnG1012" transform="matrix(1.0,0.0,0.0,1.0,10.0,33.875)"><text id="ProcessOnText1013" fill="#323232" font-size="13" x="40.5" y="13.325" font-family="Arial" font-weight="normal" font-style="normal" text-decoration="none" family="Arial" text-anchor="middle" size="13">判断是否登录</text></g></g><g id="ProcessOnG1014"><path id="ProcessOnPath1015" d="M476.0 179.0L476.0 205.0L476.0 205.0L476.0 215.7639320225002" stroke="#323232" stroke-width="2.0" stroke-dasharray="none" fill="none" marker-end="url(#ProcessOnMarker1016)"/></g><g id="ProcessOnG1018" transform="matrix(1.0,0.0,0.0,1.0,107.0,329.0)" opacity="1.0"><path id="ProcessOnPath1019" d="M0.0 0.0L137.0 0.0L137.0 48.0L0.0 48.0Z" stroke="#323232" stroke-width="2.0" stroke-dasharray="none" fill="#ffe6cc"/><g id="ProcessOnG1020" transform="matrix(1.0,0.0,0.0,1.0,10.0,15.875)"><text id="ProcessOnText1021" fill="#323232" font-size="13" x="57.5" y="13.325" font-family="Arial" font-weight="normal" font-style="normal" text-decoration="none" family="Arial" text-anchor="middle" size="13">登录页</text></g></g><g id="ProcessOnG1022"><path id="ProcessOnPath1023" d="M424.5 273.0L175.5 273.0L175.5 313.7639320225002" stroke="#323232" stroke-width="2.0" stroke-dasharray="none" fill="none" marker-end="url(#ProcessOnMarker1024)"/><g id="ProcessOnG1026" transform="matrix(1.0,0.0,0.0,1.0,279.61803398874986,264.875)"><path id="ProcessOnPath1027" d="M0 0H10.0V16.25H0Z" fill="#fff" transform="matrix(1.0,0.0,0.0,1.0,-5.0,0.0)"/><text id="ProcessOnText1028" fill="#ff0000" font-size="13" x="0.0" y="13.325" font-family="Arial" font-weight="bold" font-style="normal" text-decoration="none" family="Arial" text-anchor="middle" size="13">否</text></g></g><g id="ProcessOnG1029" transform="matrix(1.0,0.0,0.0,1.0,419.5,396.0)" opacity="1.0"><path id="ProcessOnPath1030" d="M0.0 0.0L113.0 0.0L113.0 48.0L0.0 48.0Z" stroke="#323232" stroke-width="2.0" stroke-dasharray="none" fill="#ffe6cc"/><g id="ProcessOnG1031" transform="matrix(1.0,0.0,0.0,1.0,10.0,15.875)"><text id="ProcessOnText1032" fill="#323232" font-size="13" x="45.5" y="13.325" font-family="Arial" font-weight="normal" font-style="normal" text-decoration="none" family="Arial" text-anchor="middle" size="13">进入积分商城</text></g></g><g id="ProcessOnG1033"><path id="ProcessOnPath1034" d="M476.0 315.0L476.0 355.5L476.0 355.5L476.0 380.7639320225002" stroke="#323232" stroke-width="2.0" stroke-dasharray="none" fill="none" marker-end="url(#ProcessOnMarker1035)"/></g><g id="ProcessOnG1037" transform="matrix(1.0,0.0,0.0,1.0,400.75,502.0)" opacity="1.0"><path id="ProcessOnPath1038" d="M0.0 0.0L150.5 0.0L150.5 55.0L0.0 55.0Z" stroke="#323232" stroke-width="2.0" stroke-dasharray="none" fill="#ffffff"/><g id="ProcessOnG1039" transform="matrix(1.0,0.0,0.0,1.0,10.0,19.375)"><text id="ProcessOnText1040" fill="#323232" font-size="13" x="64.25" y="13.325" font-family="Arial" font-weight="normal" font-style="normal" text-decoration="none" family="Arial" text-anchor="middle" size="13">积分兑换商品</text></g></g><g id="ProcessOnG1041"><path id="ProcessOnPath1042" d="M476.0 444.0L476.0 473.0L476.0 473.0L476.0 486.7639320225002" stroke="#323232" stroke-width="2.0" stroke-dasharray="none" fill="none" marker-end="url(#ProcessOnMarker1043)"/></g><g id="ProcessOnG1045" transform="matrix(1.0,0.0,0.0,1.0,410.5,618.0)" opacity="1.0"><path id="ProcessOnPath1046" d="M0.0 46.5L65.5 0.0L131.0 46.5L65.5 93.0L0.0 46.5Z" stroke="#323232" stroke-width="2.0" stroke-dasharray="none" fill="#ffcce6"/><g id="ProcessOnG1047" transform="matrix(1.0,0.0,0.0,1.0,10.0,38.375)"><text id="ProcessOnText1048" fill="#323232" font-size="13" x="54.5" y="13.325" font-family="Arial" font-weight="normal" font-style="normal" text-decoration="none" family="Arial" text-anchor="middle" size="13">会员积分是否足够</text></g></g><g id="ProcessOnG1049"><path id="ProcessOnPath1050" d="M476.0 557.0L476.0 587.5L476.0 587.5L476.0 602.7639320225002" stroke="#323232" stroke-width="2.0" stroke-dasharray="none" fill="none" marker-end="url(#ProcessOnMarker1051)"/></g><g id="ProcessOnG1053"><path id="ProcessOnPath1054" d="M476.0 711.0L476.0 738.0L476.0 738.0L476.0 749.7639320225002" stroke="#323232" stroke-width="2.0" stroke-dasharray="none" fill="none" marker-end="url(#ProcessOnMarker1055)"/><g id="ProcessOnG1057" transform="matrix(1.0,0.0,0.0,1.0,476.0,722.2569660112501)"><path id="ProcessOnPath1058" d="M0 0H10.0V16.25H0Z" fill="#fff" transform="matrix(1.0,0.0,0.0,1.0,-5.0,0.0)"/><text id="ProcessOnText1059" fill="#cc0000" font-size="13" x="0.0" y="13.325" font-family="Arial" font-weight="bold" font-style="normal" text-decoration="none" family="Arial" text-anchor="middle" size="13">是</text></g></g><g id="ProcessOnG1060" transform="matrix(1.0,0.0,0.0,1.0,411.0,925.0)" opacity="1.0"><path id="ProcessOnPath1061" d="M0.0 0.0L130.0 0.0L130.0 43.0L0.0 43.0Z" stroke="#323232" stroke-width="2.0" stroke-dasharray="none" fill="#ffffff"/><g id="ProcessOnG1062" transform="matrix(1.0,0.0,0.0,1.0,10.0,13.375)"><text id="ProcessOnText1063" fill="#323232" font-size="13" x="54.0" y="13.325" font-family="Arial" font-weight="normal" font-style="normal" text-decoration="none" family="Arial" text-anchor="middle" size="13">进入支付页</text></g></g><g id="ProcessOnG1064" transform="matrix(1.0,0.0,0.0,1.0,419.5,1308.0)" opacity="1.0"><path id="ProcessOnPath1065" d="M10.333333333333334 0.0L89.66666666666667 0.0C103.44444444444444 0.0 103.44444444444444 31.0 89.66666666666667 31.0L10.333333333333334 31.0C-3.4444444444444446 31.0 -3.4444444444444446 0.0 10.333333333333334 0.0Z" stroke="#323232" stroke-width="2.0" stroke-dasharray="none" fill="#ccffe6"/><g id="ProcessOnG1066" transform="matrix(1.0,0.0,0.0,1.0,10.0,7.375)"><text id="ProcessOnText1067" fill="#323232" font-size="13" x="39.0" y="13.325" font-family="Arial" font-weight="normal" font-style="normal" text-decoration="none" family="Arial" text-anchor="middle" size="13">积分商品详情页</text></g></g><g id="ProcessOnG1068"><path id="ProcessOnPath1069" d="M244.0 353.0L359.5 353.0L359.5 353.0L459.7639320225002 353.0" stroke="#323232" stroke-width="2.0" stroke-dasharray="none" fill="none" marker-end="url(#ProcessOnMarker1070)"/><g id="ProcessOnG1072" transform="matrix(1.0,0.0,0.0,1.0,351.88196601125014,344.875)"><path id="ProcessOnPath1073" d="M0 0H40.0V16.25H0Z" fill="#fff" transform="matrix(1.0,0.0,0.0,1.0,-20.0,0.0)"/><text id="ProcessOnText1074" fill="#323232" font-size="13" x="0.0" y="13.325" font-family="Arial" font-weight="normal" font-style="normal" text-decoration="none" family="Arial" text-anchor="middle" size="13">登录成功</text></g></g><g id="ProcessOnG1075" transform="matrix(1.0,0.0,0.0,1.0,405.0,765.0)" opacity="1.0"><path id="ProcessOnPath1076" d="M0.0 42.5L71.0 0.0L142.0 42.5L71.0 85.0L0.0 42.5Z" stroke="#323232" stroke-width="2.0" stroke-dasharray="none" fill="#ffcce6"/><g id="ProcessOnG1077" transform="matrix(1.0,0.0,0.0,1.0,10.0,34.375)"><text id="ProcessOnText1078" fill="#323232" font-size="13" x="60.0" y="13.325" font-family="Arial" font-weight="normal" font-style="normal" text-decoration="none" family="Arial" text-anchor="middle" size="13">是否需要兑换金额</text></g></g><g id="ProcessOnG1079"><path id="ProcessOnPath1080" d="M476.0 850.0L476.0 887.5L476.0 887.5L476.0 909.7639320225002" stroke="#323232" stroke-width="2.0" stroke-dasharray="none" fill="none" marker-end="url(#ProcessOnMarker1081)"/><g id="ProcessOnG1083" transform="matrix(1.0,0.0,0.0,1.0,476.0,871.7569660112501)"><path id="ProcessOnPath1084" d="M0 0H10.0V16.25H0Z" fill="#fff" transform="matrix(1.0,0.0,0.0,1.0,-5.0,0.0)"/><text id="ProcessOnText1085" fill="#323232" font-size="13" x="0.0" y="13.325" font-family="Arial" font-weight="normal" font-style="normal" text-decoration="none" family="Arial" text-anchor="middle" size="13">是</text></g></g><g id="ProcessOnG1086" transform="matrix(1.0,0.0,0.0,1.0,405.0,1012.0)" opacity="1.0"><path id="ProcessOnPath1087" d="M0.0 42.5L71.0 0.0L142.0 42.5L71.0 85.0L0.0 42.5Z" stroke="#323232" stroke-width="2.0" stroke-dasharray="none" fill="#ffcce6"/><g id="ProcessOnG1088" transform="matrix(1.0,0.0,0.0,1.0,10.0,34.375)"><text id="ProcessOnText1089" fill="#323232" font-size="13" x="60.0" y="13.325" font-family="Arial" font-weight="normal" font-style="normal" text-decoration="none" family="Arial" text-anchor="middle" size="13">是否为微信环境</text></g></g><g id="ProcessOnG1090"><path id="ProcessOnPath1091" d="M476.0 968.0L476.0 990.0L476.0 990.0L476.0 996.7639320225002" stroke="#323232" stroke-width="2.0" stroke-dasharray="none" fill="none" marker-end="url(#ProcessOnMarker1092)"/></g><g id="ProcessOnG1094"><path id="ProcessOnPath1095" d="M405.0 1054.5L375.0 1054.5L375.0 1323.5L404.2639320225002 1323.5" stroke="#323232" stroke-width="2.0" stroke-dasharray="none" fill="none" marker-end="url(#ProcessOnMarker1096)"/><g id="ProcessOnG1098" transform="matrix(1.0,0.0,0.0,1.0,375.0,1180.5069660112501)"><path id="ProcessOnPath1099" d="M0 0H10.0V16.25H0Z" fill="#fff" transform="matrix(1.0,0.0,0.0,1.0,-5.0,0.0)"/><text id="ProcessOnText1100" fill="#cc0000" font-size="13" x="0.0" y="13.325" font-family="Arial" font-weight="normal" font-style="normal" text-decoration="none" family="Arial" text-anchor="middle" size="13">否</text></g></g><g id="ProcessOnG1101"><path id="ProcessOnPath1102" d="M547.0 807.5L577.0 807.5L577.0 1323.5L534.7360679774998 1323.5" stroke="#323232" stroke-width="2.0" stroke-dasharray="none" fill="none" marker-end="url(#ProcessOnMarker1103)"/><g id="ProcessOnG1105" transform="matrix(1.0,0.0,0.0,1.0,577.0,1063.5069660112501)"><path id="ProcessOnPath1106" d="M0 0H10.0V16.25H0Z" fill="#fff" transform="matrix(1.0,0.0,0.0,1.0,-5.0,0.0)"/><text id="ProcessOnText1107" fill="#cc0000" font-size="13" x="0.0" y="13.325" font-family="Arial" font-weight="normal" font-style="normal" text-decoration="none" family="Arial" text-anchor="middle" size="13">否</text></g></g><g id="ProcessOnG1108"><path id="ProcessOnPath1109" d="M476.0 1097.0L476.0 1134.0L476.0 1134.0L476.0 1155.7639320225003" stroke="#323232" stroke-width="2.0" stroke-dasharray="none" fill="none" marker-end="url(#ProcessOnMarker1110)"/></g><g id="ProcessOnG1112" transform="matrix(1.0,0.0,0.0,1.0,432.5,1171.0)" opacity="1.0"><path id="ProcessOnPath1113" d="M0.0 0.0L87.0 0.0L87.0 33.0L0.0 33.0Z" stroke="#323232" stroke-width="2.0" stroke-dasharray="none" fill="#ffffff"/><g id="ProcessOnG1114" transform="matrix(1.0,0.0,0.0,1.0,10.0,8.375)"><text id="ProcessOnText1115" fill="#323232" font-size="13" x="32.5" y="13.325" font-family="Arial" font-weight="normal" font-style="normal" text-decoration="none" family="Arial" text-anchor="middle" size="13">微信支付</text></g></g><g id="ProcessOnG1116"><path id="ProcessOnPath1117" d="M476.0 1204.0L476.0 1251.0L476.0 1251.0L476.0 1282.7639320225003" stroke="#323232" stroke-width="2.0" stroke-dasharray="none" fill="none" marker-end="url(#ProcessOnMarker1118)"/></g></g></g></svg>